G04 #@! TF.GenerationSoftware,KiCad,Pcbnew,5.1.5*
G04 #@! TF.CreationDate,2020-02-28T09:51:26+01:00*
G04 #@! TF.ProjectId,afterglow_gi_nano_ps,61667465-7267-46c6-9f77-5f67695f6e61,rev?*
G04 #@! TF.SameCoordinates,Original*
G04 #@! TF.FileFunction,Paste,Bot*
G04 #@! TF.FilePolarity,Positive*
%FSLAX46Y46*%
G04 Gerber Fmt 4.6, Leading zero omitted, Abs format (unit mm)*
G04 Created by KiCad (PCBNEW 5.1.5) date 2020-02-28 09:51:26*
%MOMM*%
%LPD*%
G04 APERTURE LIST*
%ADD10R,1.950000X0.600000*%
%ADD11R,1.500000X1.250000*%
%ADD12R,1.500000X1.300000*%
%ADD13R,1.300000X1.500000*%
G04 APERTURE END LIST*
D10*
X101900000Y-33000000D03*
X101900000Y-34270000D03*
X101900000Y-35540000D03*
X101900000Y-36810000D03*
X101900000Y-38080000D03*
X101900000Y-39350000D03*
X101900000Y-40620000D03*
X101900000Y-41890000D03*
X101900000Y-43160000D03*
X101900000Y-44430000D03*
X92500000Y-44430000D03*
X92500000Y-43160000D03*
X92500000Y-41890000D03*
X92500000Y-40620000D03*
X92500000Y-39350000D03*
X92500000Y-38080000D03*
X92500000Y-36810000D03*
X92500000Y-35540000D03*
X92500000Y-34270000D03*
X92500000Y-33000000D03*
D11*
X76000000Y-38000000D03*
X73500000Y-38000000D03*
D12*
X98500000Y-30500000D03*
X95800000Y-30500000D03*
X112000000Y-81500000D03*
X109300000Y-81500000D03*
D13*
X59000000Y-128000000D03*
X59000000Y-125300000D03*
X91500000Y-52500000D03*
X91500000Y-55200000D03*
X94000000Y-55200000D03*
X94000000Y-52500000D03*
X63000000Y-125300000D03*
X63000000Y-128000000D03*
X77500000Y-52500000D03*
X77500000Y-55200000D03*
X80000000Y-52500000D03*
X80000000Y-55200000D03*
X67000000Y-125300000D03*
X67000000Y-128000000D03*
X70500000Y-52500000D03*
X70500000Y-55200000D03*
X73000000Y-55200000D03*
X73000000Y-52500000D03*
X74800000Y-125300000D03*
X74800000Y-128000000D03*
X63500000Y-52500000D03*
X63500000Y-55200000D03*
X66000000Y-55200000D03*
X66000000Y-52500000D03*
X78800000Y-125300000D03*
X78800000Y-128000000D03*
X84500000Y-52500000D03*
X84500000Y-55200000D03*
X87000000Y-55200000D03*
X87000000Y-52500000D03*
D12*
X112700000Y-87000000D03*
X110000000Y-87000000D03*
X110000000Y-91000000D03*
X112700000Y-91000000D03*
X110000000Y-95000000D03*
X112700000Y-95000000D03*
X110000000Y-99000000D03*
X112700000Y-99000000D03*
X110000000Y-103000000D03*
X112700000Y-103000000D03*
D13*
X72000000Y-43700000D03*
X72000000Y-41000000D03*
X75000000Y-43700000D03*
X75000000Y-41000000D03*
M02*
