M48
INCH,TZ
T1C0.0157
T2C0.0315
T3C0.0394
T4C0.0400
T5C0.0472
T6C0.0512
T7C0.0531
T8C0.0551
T9C0.0579
T10C0.0669
T11C0.1693
T12C0.1693
%
G90
G05
T1
X21260Y-22638
X22441Y-29134
X23642Y-27708
X23819Y-22244
X26378Y-22441
X29528Y-22441
X32087Y-17323
X32283Y-22441
X33268Y-23819
X34843Y-22441
X37402Y-16929
X38583Y-16142
X38898Y-15748
X39173Y-17126
X39455Y-15636
X40157Y-18701
X40945Y-16929
X41535Y-27165
X42126Y-14567
X42126Y-17520
X43307Y-13976
X44094Y-49606
X44488Y-49213
X44882Y-48819
X45276Y-34252
X45276Y-35827
X45276Y-37402
X45276Y-38976
X45276Y-41339
T2
X23622Y-33071
X23622Y-35039
X24976Y-19291
X24976Y-25291
X25976Y-19291
X25976Y-25291
X26976Y-19291
X26976Y-25291
X27976Y-19291
X27976Y-25291
X28976Y-19291
X28976Y-25291
X29976Y-19291
X29976Y-25291
X30976Y-19291
X30976Y-25291
X31976Y-19291
X31976Y-25291
X32976Y-19291
X32976Y-25291
X33976Y-19291
X33976Y-25291
X34976Y-19291
X34976Y-25291
X35976Y-19291
X35976Y-25291
X36976Y-19291
X36976Y-25291
X37976Y-19291
X37976Y-25291
X38976Y-19291
X38976Y-25291
X16339Y-20669
X16339Y-21669
X16339Y-22669
X16339Y-23669
X19339Y-20669
X19339Y-21669
X19339Y-22669
X19339Y-23669
T3
X26378Y-35039
X27378Y-35039
X28378Y-35039
X19882Y-16535
X19882Y-17535
X19882Y-18535
X16339Y-16535
X16339Y-17535
X16339Y-18535
X16339Y-12008
X16339Y-13008
X16339Y-14008
X26378Y-38583
X27378Y-38583
X28378Y-38583
X24016Y-16929
X25016Y-16929
X26016Y-16929
X26378Y-27953
X27378Y-27953
X28378Y-27953
X19882Y-12008
X19882Y-13008
X19882Y-14008
X26378Y-31496
X27378Y-31496
X28378Y-31496
X26378Y-41732
X27378Y-41732
X28378Y-41732
T4
X43094Y-14709
X43094Y-15709
X43094Y-16709
X43094Y-17709
X43094Y-18709
X43094Y-19709
X43094Y-20709
X43094Y-21709
X43094Y-22709
X43094Y-23709
X43094Y-24709
X43094Y-25709
X43094Y-26709
X43094Y-27709
X43094Y-28709
X43094Y-29709
X43094Y-30709
X44094Y-14709
X44094Y-15709
X44094Y-16709
X44094Y-17709
X44094Y-18709
X44094Y-19709
X44094Y-20709
X44094Y-21709
X44094Y-22709
X44094Y-23709
X44094Y-24709
X44094Y-25709
X44094Y-26709
X44094Y-27709
X44094Y-28709
X44094Y-29709
X44094Y-30709
T5
X16535Y-35630
X19488Y-35630
X16535Y-50591
X19488Y-50591
X16535Y-28150
X19488Y-28150
X16535Y-43110
X19488Y-43110
T6
X32087Y-17323
X33071Y-13386
X34055Y-17323
T7
X17520Y-8071
X17520Y-10071
X23551Y-8071
X23551Y-10071
X32283Y-41339
X32283Y-43339
X38315Y-41339
X38315Y-43339
X32283Y-37795
X32283Y-39795
X38315Y-37795
X38315Y-39795
X32283Y-34252
X32283Y-36252
X38315Y-34252
X38315Y-36252
X32283Y-27165
X32283Y-29165
X38315Y-27165
X38315Y-29165
X32283Y-30709
X32283Y-32709
X38315Y-30709
X38315Y-32709
T8
X23559Y-13780
X27559Y-13780
T9
X43110Y-45866
X43110Y-47835
T10
X23228Y-46850
X24788Y-46850
X26348Y-46850
X27908Y-46850
X29468Y-46850
X31028Y-46850
X32588Y-46850
X34148Y-46850
X35708Y-46850
X37268Y-46850
X38827Y-46850
X27559Y-9843
X29119Y-9843
X30679Y-9843
X32239Y-9843
X33799Y-9843
X35359Y-9843
X36919Y-9843
X38479Y-9843
X40039Y-9843
X41599Y-9843
X43158Y-9843
X44717Y-9843
X40945Y-51969
X42505Y-51969
X44065Y-51969
X23228Y-51969
X24788Y-51969
X26348Y-51969
X27908Y-51969
X29468Y-51969
X31028Y-51969
X32588Y-51969
X34148Y-51969
X35708Y-51969
X37268Y-51969
X38827Y-51969
T11
X45276Y-6102
X15748Y-55512
T12
X45472Y-55709
X15551Y-5906
T0
M30
