M48
INCH,TZ
T1C0.0157
T2C0.0315
T3C0.0394
T4C0.0400
T5C0.0512
T6C0.0531
T7C0.0551
T8C0.0579
T9C0.0669
T10C0.1693
%
G90
G05
T1
X22441Y-29134
X23642Y-27708
X23819Y-22244
X26378Y-22441
X29528Y-22441
X32087Y-17323
X32283Y-22441
X33268Y-23819
X34843Y-22441
X37402Y-16929
X38583Y-16142
X38898Y-15748
X39173Y-17126
X39455Y-15636
X40157Y-18701
X40945Y-16929
X41535Y-27165
X42126Y-14567
X42126Y-17520
X43307Y-13976
X44094Y-49606
X44488Y-49213
X44882Y-48819
X45276Y-34252
X45276Y-35827
X45276Y-37402
X45276Y-38976
X45276Y-41339
T2
X24976Y-19291
X24976Y-25291
X25976Y-19291
X25976Y-25291
X26976Y-19291
X26976Y-25291
X27976Y-19291
X27976Y-25291
X28976Y-19291
X28976Y-25291
X29976Y-19291
X29976Y-25291
X30976Y-19291
X30976Y-25291
X31976Y-19291
X31976Y-25291
X32976Y-19291
X32976Y-25291
X33976Y-19291
X33976Y-25291
X34976Y-19291
X34976Y-25291
X35976Y-19291
X35976Y-25291
X36976Y-19291
X36976Y-25291
X37976Y-19291
X37976Y-25291
X38976Y-19291
X38976Y-25291
T3
X26378Y-38583
X27378Y-38583
X28378Y-38583
X26378Y-31496
X27378Y-31496
X28378Y-31496
X26378Y-27953
X27378Y-27953
X28378Y-27953
X26378Y-41732
X27378Y-41732
X28378Y-41732
X24016Y-16929
X25016Y-16929
X26016Y-16929
X26378Y-35039
X27378Y-35039
X28378Y-35039
T4
X43094Y-14709
X43094Y-15709
X43094Y-16709
X43094Y-17709
X43094Y-18709
X43094Y-19709
X43094Y-20709
X43094Y-21709
X43094Y-22709
X43094Y-23709
X43094Y-24709
X43094Y-25709
X43094Y-26709
X43094Y-27709
X43094Y-28709
X43094Y-29709
X43094Y-30709
X44094Y-14709
X44094Y-15709
X44094Y-16709
X44094Y-17709
X44094Y-18709
X44094Y-19709
X44094Y-20709
X44094Y-21709
X44094Y-22709
X44094Y-23709
X44094Y-24709
X44094Y-25709
X44094Y-26709
X44094Y-27709
X44094Y-28709
X44094Y-29709
X44094Y-30709
T5
X32087Y-17323
X33071Y-13386
X34055Y-17323
T6
X32283Y-30709
X32283Y-32709
X38315Y-30709
X38315Y-32709
X32283Y-37795
X32283Y-39795
X38315Y-37795
X38315Y-39795
X32283Y-41339
X32283Y-43339
X38315Y-41339
X38315Y-43339
X32283Y-27165
X32283Y-29165
X38315Y-27165
X38315Y-29165
X32283Y-34252
X32283Y-36252
X38315Y-34252
X38315Y-36252
T7
X23559Y-13780
X27559Y-13780
T8
X43110Y-45866
X43110Y-47835
T9
X41339Y-51969
X42899Y-51969
X44459Y-51969
X23228Y-51969
X24788Y-51969
X26348Y-51969
X27908Y-51969
X29468Y-51969
X31028Y-51969
X32588Y-51969
X34148Y-51969
X35708Y-51969
X37268Y-51969
X38827Y-51969
X23228Y-46850
X24788Y-46850
X26348Y-46850
X27908Y-46850
X29468Y-46850
X31028Y-46850
X32588Y-46850
X34148Y-46850
X35708Y-46850
X37268Y-46850
X38827Y-46850
T10
X21457Y-55709
X21457Y-12205
X45472Y-55709
X45472Y-12205
T0
M30
