G04 #@! TF.GenerationSoftware,KiCad,Pcbnew,5.0.1*
G04 #@! TF.CreationDate,2019-02-24T09:50:17+01:00*
G04 #@! TF.ProjectId,afterglow_gi_nano,6166746572676C6F775F67695F6E616E,rev?*
G04 #@! TF.SameCoordinates,Original*
G04 #@! TF.FileFunction,Legend,Bot*
G04 #@! TF.FilePolarity,Positive*
%FSLAX46Y46*%
G04 Gerber Fmt 4.6, Leading zero omitted, Abs format (unit mm)*
G04 Created by KiCad (PCBNEW 5.0.1) date So 24 Feb 2019 09:50:17 CET*
%MOMM*%
%LPD*%
G01*
G04 APERTURE LIST*
%ADD10C,0.150000*%
%ADD11C,0.120000*%
G04 APERTURE END LIST*
D10*
G04 #@! TO.C,U1*
X101075000Y-32140000D02*
X101075000Y-32390000D01*
X93325000Y-32140000D02*
X93325000Y-32475000D01*
X93325000Y-45290000D02*
X93325000Y-44955000D01*
X101075000Y-45290000D02*
X101075000Y-44955000D01*
X101075000Y-32140000D02*
X93325000Y-32140000D01*
X101075000Y-45290000D02*
X93325000Y-45290000D01*
X101075000Y-32390000D02*
X102875000Y-32390000D01*
D11*
G04 #@! TO.C,C3*
X74250000Y-37150000D02*
X75250000Y-37150000D01*
X75250000Y-38850000D02*
X74250000Y-38850000D01*
G04 #@! TO.C,R1*
X96550000Y-31380000D02*
X97750000Y-31380000D01*
X97750000Y-29620000D02*
X96550000Y-29620000D01*
G04 #@! TO.C,R2*
X110050000Y-82380000D02*
X111250000Y-82380000D01*
X111250000Y-80620000D02*
X110050000Y-80620000D01*
G04 #@! TO.C,R3*
X58120000Y-126050000D02*
X58120000Y-127250000D01*
X59880000Y-127250000D02*
X59880000Y-126050000D01*
G04 #@! TO.C,R4*
X92380000Y-54450000D02*
X92380000Y-53250000D01*
X90620000Y-53250000D02*
X90620000Y-54450000D01*
G04 #@! TO.C,R5*
X93120000Y-53250000D02*
X93120000Y-54450000D01*
X94880000Y-54450000D02*
X94880000Y-53250000D01*
G04 #@! TO.C,R6*
X63880000Y-127250000D02*
X63880000Y-126050000D01*
X62120000Y-126050000D02*
X62120000Y-127250000D01*
G04 #@! TO.C,R7*
X78380000Y-54450000D02*
X78380000Y-53250000D01*
X76620000Y-53250000D02*
X76620000Y-54450000D01*
G04 #@! TO.C,R8*
X80880000Y-54450000D02*
X80880000Y-53250000D01*
X79120000Y-53250000D02*
X79120000Y-54450000D01*
G04 #@! TO.C,R9*
X67880000Y-127250000D02*
X67880000Y-126050000D01*
X66120000Y-126050000D02*
X66120000Y-127250000D01*
G04 #@! TO.C,R10*
X71380000Y-54450000D02*
X71380000Y-53250000D01*
X69620000Y-53250000D02*
X69620000Y-54450000D01*
G04 #@! TO.C,R11*
X72120000Y-53250000D02*
X72120000Y-54450000D01*
X73880000Y-54450000D02*
X73880000Y-53250000D01*
G04 #@! TO.C,R12*
X75680000Y-127250000D02*
X75680000Y-126050000D01*
X73920000Y-126050000D02*
X73920000Y-127250000D01*
G04 #@! TO.C,R13*
X64380000Y-54450000D02*
X64380000Y-53250000D01*
X62620000Y-53250000D02*
X62620000Y-54450000D01*
G04 #@! TO.C,R14*
X65120000Y-53250000D02*
X65120000Y-54450000D01*
X66880000Y-54450000D02*
X66880000Y-53250000D01*
G04 #@! TO.C,R15*
X79680000Y-127250000D02*
X79680000Y-126050000D01*
X77920000Y-126050000D02*
X77920000Y-127250000D01*
G04 #@! TO.C,R16*
X85380000Y-54450000D02*
X85380000Y-53250000D01*
X83620000Y-53250000D02*
X83620000Y-54450000D01*
G04 #@! TO.C,R17*
X86120000Y-53250000D02*
X86120000Y-54450000D01*
X87880000Y-54450000D02*
X87880000Y-53250000D01*
G04 #@! TO.C,R18*
X110750000Y-87880000D02*
X111950000Y-87880000D01*
X111950000Y-86120000D02*
X110750000Y-86120000D01*
G04 #@! TO.C,R19*
X111950000Y-90120000D02*
X110750000Y-90120000D01*
X110750000Y-91880000D02*
X111950000Y-91880000D01*
G04 #@! TO.C,R20*
X111950000Y-94120000D02*
X110750000Y-94120000D01*
X110750000Y-95880000D02*
X111950000Y-95880000D01*
G04 #@! TO.C,R21*
X111950000Y-98120000D02*
X110750000Y-98120000D01*
X110750000Y-99880000D02*
X111950000Y-99880000D01*
G04 #@! TO.C,R22*
X111950000Y-102120000D02*
X110750000Y-102120000D01*
X110750000Y-103880000D02*
X111950000Y-103880000D01*
G04 #@! TO.C,R23*
X71120000Y-41750000D02*
X71120000Y-42950000D01*
X72880000Y-42950000D02*
X72880000Y-41750000D01*
G04 #@! TO.C,R24*
X74120000Y-41750000D02*
X74120000Y-42950000D01*
X75880000Y-42950000D02*
X75880000Y-41750000D01*
G04 #@! TO.C,U1*
D10*
X97761904Y-33452380D02*
X97761904Y-34261904D01*
X97714285Y-34357142D01*
X97666666Y-34404761D01*
X97571428Y-34452380D01*
X97380952Y-34452380D01*
X97285714Y-34404761D01*
X97238095Y-34357142D01*
X97190476Y-34261904D01*
X97190476Y-33452380D01*
X96190476Y-34452380D02*
X96761904Y-34452380D01*
X96476190Y-34452380D02*
X96476190Y-33452380D01*
X96571428Y-33595238D01*
X96666666Y-33690476D01*
X96761904Y-33738095D01*
G04 #@! TO.C,C3*
X74916666Y-36357142D02*
X74964285Y-36404761D01*
X75107142Y-36452380D01*
X75202380Y-36452380D01*
X75345238Y-36404761D01*
X75440476Y-36309523D01*
X75488095Y-36214285D01*
X75535714Y-36023809D01*
X75535714Y-35880952D01*
X75488095Y-35690476D01*
X75440476Y-35595238D01*
X75345238Y-35500000D01*
X75202380Y-35452380D01*
X75107142Y-35452380D01*
X74964285Y-35500000D01*
X74916666Y-35547619D01*
X74583333Y-35452380D02*
X73964285Y-35452380D01*
X74297619Y-35833333D01*
X74154761Y-35833333D01*
X74059523Y-35880952D01*
X74011904Y-35928571D01*
X73964285Y-36023809D01*
X73964285Y-36261904D01*
X74011904Y-36357142D01*
X74059523Y-36404761D01*
X74154761Y-36452380D01*
X74440476Y-36452380D01*
X74535714Y-36404761D01*
X74583333Y-36357142D01*
G04 #@! TO.C,R1*
X101166666Y-30952380D02*
X101500000Y-30476190D01*
X101738095Y-30952380D02*
X101738095Y-29952380D01*
X101357142Y-29952380D01*
X101261904Y-30000000D01*
X101214285Y-30047619D01*
X101166666Y-30142857D01*
X101166666Y-30285714D01*
X101214285Y-30380952D01*
X101261904Y-30428571D01*
X101357142Y-30476190D01*
X101738095Y-30476190D01*
X100214285Y-30952380D02*
X100785714Y-30952380D01*
X100500000Y-30952380D02*
X100500000Y-29952380D01*
X100595238Y-30095238D01*
X100690476Y-30190476D01*
X100785714Y-30238095D01*
G04 #@! TO.C,R2*
X110816666Y-83952380D02*
X111150000Y-83476190D01*
X111388095Y-83952380D02*
X111388095Y-82952380D01*
X111007142Y-82952380D01*
X110911904Y-83000000D01*
X110864285Y-83047619D01*
X110816666Y-83142857D01*
X110816666Y-83285714D01*
X110864285Y-83380952D01*
X110911904Y-83428571D01*
X111007142Y-83476190D01*
X111388095Y-83476190D01*
X110435714Y-83047619D02*
X110388095Y-83000000D01*
X110292857Y-82952380D01*
X110054761Y-82952380D01*
X109959523Y-83000000D01*
X109911904Y-83047619D01*
X109864285Y-83142857D01*
X109864285Y-83238095D01*
X109911904Y-83380952D01*
X110483333Y-83952380D01*
X109864285Y-83952380D01*
G04 #@! TO.C,R3*
X61152380Y-126483333D02*
X60676190Y-126150000D01*
X61152380Y-125911904D02*
X60152380Y-125911904D01*
X60152380Y-126292857D01*
X60200000Y-126388095D01*
X60247619Y-126435714D01*
X60342857Y-126483333D01*
X60485714Y-126483333D01*
X60580952Y-126435714D01*
X60628571Y-126388095D01*
X60676190Y-126292857D01*
X60676190Y-125911904D01*
X60152380Y-126816666D02*
X60152380Y-127435714D01*
X60533333Y-127102380D01*
X60533333Y-127245238D01*
X60580952Y-127340476D01*
X60628571Y-127388095D01*
X60723809Y-127435714D01*
X60961904Y-127435714D01*
X61057142Y-127388095D01*
X61104761Y-127340476D01*
X61152380Y-127245238D01*
X61152380Y-126959523D01*
X61104761Y-126864285D01*
X61057142Y-126816666D01*
G04 #@! TO.C,R4*
X91952380Y-57333333D02*
X91476190Y-57000000D01*
X91952380Y-56761904D02*
X90952380Y-56761904D01*
X90952380Y-57142857D01*
X91000000Y-57238095D01*
X91047619Y-57285714D01*
X91142857Y-57333333D01*
X91285714Y-57333333D01*
X91380952Y-57285714D01*
X91428571Y-57238095D01*
X91476190Y-57142857D01*
X91476190Y-56761904D01*
X91285714Y-58190476D02*
X91952380Y-58190476D01*
X90904761Y-57952380D02*
X91619047Y-57714285D01*
X91619047Y-58333333D01*
G04 #@! TO.C,R5*
X94452380Y-57333333D02*
X93976190Y-57000000D01*
X94452380Y-56761904D02*
X93452380Y-56761904D01*
X93452380Y-57142857D01*
X93500000Y-57238095D01*
X93547619Y-57285714D01*
X93642857Y-57333333D01*
X93785714Y-57333333D01*
X93880952Y-57285714D01*
X93928571Y-57238095D01*
X93976190Y-57142857D01*
X93976190Y-56761904D01*
X93452380Y-58238095D02*
X93452380Y-57761904D01*
X93928571Y-57714285D01*
X93880952Y-57761904D01*
X93833333Y-57857142D01*
X93833333Y-58095238D01*
X93880952Y-58190476D01*
X93928571Y-58238095D01*
X94023809Y-58285714D01*
X94261904Y-58285714D01*
X94357142Y-58238095D01*
X94404761Y-58190476D01*
X94452380Y-58095238D01*
X94452380Y-57857142D01*
X94404761Y-57761904D01*
X94357142Y-57714285D01*
G04 #@! TO.C,R6*
X65152380Y-126483333D02*
X64676190Y-126150000D01*
X65152380Y-125911904D02*
X64152380Y-125911904D01*
X64152380Y-126292857D01*
X64200000Y-126388095D01*
X64247619Y-126435714D01*
X64342857Y-126483333D01*
X64485714Y-126483333D01*
X64580952Y-126435714D01*
X64628571Y-126388095D01*
X64676190Y-126292857D01*
X64676190Y-125911904D01*
X64152380Y-127340476D02*
X64152380Y-127150000D01*
X64200000Y-127054761D01*
X64247619Y-127007142D01*
X64390476Y-126911904D01*
X64580952Y-126864285D01*
X64961904Y-126864285D01*
X65057142Y-126911904D01*
X65104761Y-126959523D01*
X65152380Y-127054761D01*
X65152380Y-127245238D01*
X65104761Y-127340476D01*
X65057142Y-127388095D01*
X64961904Y-127435714D01*
X64723809Y-127435714D01*
X64628571Y-127388095D01*
X64580952Y-127340476D01*
X64533333Y-127245238D01*
X64533333Y-127054761D01*
X64580952Y-126959523D01*
X64628571Y-126911904D01*
X64723809Y-126864285D01*
G04 #@! TO.C,R7*
X77952380Y-57333333D02*
X77476190Y-57000000D01*
X77952380Y-56761904D02*
X76952380Y-56761904D01*
X76952380Y-57142857D01*
X77000000Y-57238095D01*
X77047619Y-57285714D01*
X77142857Y-57333333D01*
X77285714Y-57333333D01*
X77380952Y-57285714D01*
X77428571Y-57238095D01*
X77476190Y-57142857D01*
X77476190Y-56761904D01*
X76952380Y-57666666D02*
X76952380Y-58333333D01*
X77952380Y-57904761D01*
G04 #@! TO.C,R8*
X80452380Y-57333333D02*
X79976190Y-57000000D01*
X80452380Y-56761904D02*
X79452380Y-56761904D01*
X79452380Y-57142857D01*
X79500000Y-57238095D01*
X79547619Y-57285714D01*
X79642857Y-57333333D01*
X79785714Y-57333333D01*
X79880952Y-57285714D01*
X79928571Y-57238095D01*
X79976190Y-57142857D01*
X79976190Y-56761904D01*
X79880952Y-57904761D02*
X79833333Y-57809523D01*
X79785714Y-57761904D01*
X79690476Y-57714285D01*
X79642857Y-57714285D01*
X79547619Y-57761904D01*
X79500000Y-57809523D01*
X79452380Y-57904761D01*
X79452380Y-58095238D01*
X79500000Y-58190476D01*
X79547619Y-58238095D01*
X79642857Y-58285714D01*
X79690476Y-58285714D01*
X79785714Y-58238095D01*
X79833333Y-58190476D01*
X79880952Y-58095238D01*
X79880952Y-57904761D01*
X79928571Y-57809523D01*
X79976190Y-57761904D01*
X80071428Y-57714285D01*
X80261904Y-57714285D01*
X80357142Y-57761904D01*
X80404761Y-57809523D01*
X80452380Y-57904761D01*
X80452380Y-58095238D01*
X80404761Y-58190476D01*
X80357142Y-58238095D01*
X80261904Y-58285714D01*
X80071428Y-58285714D01*
X79976190Y-58238095D01*
X79928571Y-58190476D01*
X79880952Y-58095238D01*
G04 #@! TO.C,R9*
X69152380Y-126483333D02*
X68676190Y-126150000D01*
X69152380Y-125911904D02*
X68152380Y-125911904D01*
X68152380Y-126292857D01*
X68200000Y-126388095D01*
X68247619Y-126435714D01*
X68342857Y-126483333D01*
X68485714Y-126483333D01*
X68580952Y-126435714D01*
X68628571Y-126388095D01*
X68676190Y-126292857D01*
X68676190Y-125911904D01*
X69152380Y-126959523D02*
X69152380Y-127150000D01*
X69104761Y-127245238D01*
X69057142Y-127292857D01*
X68914285Y-127388095D01*
X68723809Y-127435714D01*
X68342857Y-127435714D01*
X68247619Y-127388095D01*
X68200000Y-127340476D01*
X68152380Y-127245238D01*
X68152380Y-127054761D01*
X68200000Y-126959523D01*
X68247619Y-126911904D01*
X68342857Y-126864285D01*
X68580952Y-126864285D01*
X68676190Y-126911904D01*
X68723809Y-126959523D01*
X68771428Y-127054761D01*
X68771428Y-127245238D01*
X68723809Y-127340476D01*
X68676190Y-127388095D01*
X68580952Y-127435714D01*
G04 #@! TO.C,R10*
X70952380Y-57357142D02*
X70476190Y-57023809D01*
X70952380Y-56785714D02*
X69952380Y-56785714D01*
X69952380Y-57166666D01*
X70000000Y-57261904D01*
X70047619Y-57309523D01*
X70142857Y-57357142D01*
X70285714Y-57357142D01*
X70380952Y-57309523D01*
X70428571Y-57261904D01*
X70476190Y-57166666D01*
X70476190Y-56785714D01*
X70952380Y-58309523D02*
X70952380Y-57738095D01*
X70952380Y-58023809D02*
X69952380Y-58023809D01*
X70095238Y-57928571D01*
X70190476Y-57833333D01*
X70238095Y-57738095D01*
X69952380Y-58928571D02*
X69952380Y-59023809D01*
X70000000Y-59119047D01*
X70047619Y-59166666D01*
X70142857Y-59214285D01*
X70333333Y-59261904D01*
X70571428Y-59261904D01*
X70761904Y-59214285D01*
X70857142Y-59166666D01*
X70904761Y-59119047D01*
X70952380Y-59023809D01*
X70952380Y-58928571D01*
X70904761Y-58833333D01*
X70857142Y-58785714D01*
X70761904Y-58738095D01*
X70571428Y-58690476D01*
X70333333Y-58690476D01*
X70142857Y-58738095D01*
X70047619Y-58785714D01*
X70000000Y-58833333D01*
X69952380Y-58928571D01*
G04 #@! TO.C,R11*
X73452380Y-57357142D02*
X72976190Y-57023809D01*
X73452380Y-56785714D02*
X72452380Y-56785714D01*
X72452380Y-57166666D01*
X72500000Y-57261904D01*
X72547619Y-57309523D01*
X72642857Y-57357142D01*
X72785714Y-57357142D01*
X72880952Y-57309523D01*
X72928571Y-57261904D01*
X72976190Y-57166666D01*
X72976190Y-56785714D01*
X73452380Y-58309523D02*
X73452380Y-57738095D01*
X73452380Y-58023809D02*
X72452380Y-58023809D01*
X72595238Y-57928571D01*
X72690476Y-57833333D01*
X72738095Y-57738095D01*
X73452380Y-59261904D02*
X73452380Y-58690476D01*
X73452380Y-58976190D02*
X72452380Y-58976190D01*
X72595238Y-58880952D01*
X72690476Y-58785714D01*
X72738095Y-58690476D01*
G04 #@! TO.C,R12*
X76952380Y-126007142D02*
X76476190Y-125673809D01*
X76952380Y-125435714D02*
X75952380Y-125435714D01*
X75952380Y-125816666D01*
X76000000Y-125911904D01*
X76047619Y-125959523D01*
X76142857Y-126007142D01*
X76285714Y-126007142D01*
X76380952Y-125959523D01*
X76428571Y-125911904D01*
X76476190Y-125816666D01*
X76476190Y-125435714D01*
X76952380Y-126959523D02*
X76952380Y-126388095D01*
X76952380Y-126673809D02*
X75952380Y-126673809D01*
X76095238Y-126578571D01*
X76190476Y-126483333D01*
X76238095Y-126388095D01*
X76047619Y-127340476D02*
X76000000Y-127388095D01*
X75952380Y-127483333D01*
X75952380Y-127721428D01*
X76000000Y-127816666D01*
X76047619Y-127864285D01*
X76142857Y-127911904D01*
X76238095Y-127911904D01*
X76380952Y-127864285D01*
X76952380Y-127292857D01*
X76952380Y-127911904D01*
G04 #@! TO.C,R13*
X63952380Y-57357142D02*
X63476190Y-57023809D01*
X63952380Y-56785714D02*
X62952380Y-56785714D01*
X62952380Y-57166666D01*
X63000000Y-57261904D01*
X63047619Y-57309523D01*
X63142857Y-57357142D01*
X63285714Y-57357142D01*
X63380952Y-57309523D01*
X63428571Y-57261904D01*
X63476190Y-57166666D01*
X63476190Y-56785714D01*
X63952380Y-58309523D02*
X63952380Y-57738095D01*
X63952380Y-58023809D02*
X62952380Y-58023809D01*
X63095238Y-57928571D01*
X63190476Y-57833333D01*
X63238095Y-57738095D01*
X62952380Y-58642857D02*
X62952380Y-59261904D01*
X63333333Y-58928571D01*
X63333333Y-59071428D01*
X63380952Y-59166666D01*
X63428571Y-59214285D01*
X63523809Y-59261904D01*
X63761904Y-59261904D01*
X63857142Y-59214285D01*
X63904761Y-59166666D01*
X63952380Y-59071428D01*
X63952380Y-58785714D01*
X63904761Y-58690476D01*
X63857142Y-58642857D01*
G04 #@! TO.C,R14*
X66452380Y-57357142D02*
X65976190Y-57023809D01*
X66452380Y-56785714D02*
X65452380Y-56785714D01*
X65452380Y-57166666D01*
X65500000Y-57261904D01*
X65547619Y-57309523D01*
X65642857Y-57357142D01*
X65785714Y-57357142D01*
X65880952Y-57309523D01*
X65928571Y-57261904D01*
X65976190Y-57166666D01*
X65976190Y-56785714D01*
X66452380Y-58309523D02*
X66452380Y-57738095D01*
X66452380Y-58023809D02*
X65452380Y-58023809D01*
X65595238Y-57928571D01*
X65690476Y-57833333D01*
X65738095Y-57738095D01*
X65785714Y-59166666D02*
X66452380Y-59166666D01*
X65404761Y-58928571D02*
X66119047Y-58690476D01*
X66119047Y-59309523D01*
G04 #@! TO.C,R15*
X80952380Y-126007142D02*
X80476190Y-125673809D01*
X80952380Y-125435714D02*
X79952380Y-125435714D01*
X79952380Y-125816666D01*
X80000000Y-125911904D01*
X80047619Y-125959523D01*
X80142857Y-126007142D01*
X80285714Y-126007142D01*
X80380952Y-125959523D01*
X80428571Y-125911904D01*
X80476190Y-125816666D01*
X80476190Y-125435714D01*
X80952380Y-126959523D02*
X80952380Y-126388095D01*
X80952380Y-126673809D02*
X79952380Y-126673809D01*
X80095238Y-126578571D01*
X80190476Y-126483333D01*
X80238095Y-126388095D01*
X79952380Y-127864285D02*
X79952380Y-127388095D01*
X80428571Y-127340476D01*
X80380952Y-127388095D01*
X80333333Y-127483333D01*
X80333333Y-127721428D01*
X80380952Y-127816666D01*
X80428571Y-127864285D01*
X80523809Y-127911904D01*
X80761904Y-127911904D01*
X80857142Y-127864285D01*
X80904761Y-127816666D01*
X80952380Y-127721428D01*
X80952380Y-127483333D01*
X80904761Y-127388095D01*
X80857142Y-127340476D01*
G04 #@! TO.C,R16*
X84952380Y-57357142D02*
X84476190Y-57023809D01*
X84952380Y-56785714D02*
X83952380Y-56785714D01*
X83952380Y-57166666D01*
X84000000Y-57261904D01*
X84047619Y-57309523D01*
X84142857Y-57357142D01*
X84285714Y-57357142D01*
X84380952Y-57309523D01*
X84428571Y-57261904D01*
X84476190Y-57166666D01*
X84476190Y-56785714D01*
X84952380Y-58309523D02*
X84952380Y-57738095D01*
X84952380Y-58023809D02*
X83952380Y-58023809D01*
X84095238Y-57928571D01*
X84190476Y-57833333D01*
X84238095Y-57738095D01*
X83952380Y-59166666D02*
X83952380Y-58976190D01*
X84000000Y-58880952D01*
X84047619Y-58833333D01*
X84190476Y-58738095D01*
X84380952Y-58690476D01*
X84761904Y-58690476D01*
X84857142Y-58738095D01*
X84904761Y-58785714D01*
X84952380Y-58880952D01*
X84952380Y-59071428D01*
X84904761Y-59166666D01*
X84857142Y-59214285D01*
X84761904Y-59261904D01*
X84523809Y-59261904D01*
X84428571Y-59214285D01*
X84380952Y-59166666D01*
X84333333Y-59071428D01*
X84333333Y-58880952D01*
X84380952Y-58785714D01*
X84428571Y-58738095D01*
X84523809Y-58690476D01*
G04 #@! TO.C,R17*
X87452380Y-57357142D02*
X86976190Y-57023809D01*
X87452380Y-56785714D02*
X86452380Y-56785714D01*
X86452380Y-57166666D01*
X86500000Y-57261904D01*
X86547619Y-57309523D01*
X86642857Y-57357142D01*
X86785714Y-57357142D01*
X86880952Y-57309523D01*
X86928571Y-57261904D01*
X86976190Y-57166666D01*
X86976190Y-56785714D01*
X87452380Y-58309523D02*
X87452380Y-57738095D01*
X87452380Y-58023809D02*
X86452380Y-58023809D01*
X86595238Y-57928571D01*
X86690476Y-57833333D01*
X86738095Y-57738095D01*
X86452380Y-58642857D02*
X86452380Y-59309523D01*
X87452380Y-58880952D01*
G04 #@! TO.C,R18*
X111992857Y-89152380D02*
X112326190Y-88676190D01*
X112564285Y-89152380D02*
X112564285Y-88152380D01*
X112183333Y-88152380D01*
X112088095Y-88200000D01*
X112040476Y-88247619D01*
X111992857Y-88342857D01*
X111992857Y-88485714D01*
X112040476Y-88580952D01*
X112088095Y-88628571D01*
X112183333Y-88676190D01*
X112564285Y-88676190D01*
X111040476Y-89152380D02*
X111611904Y-89152380D01*
X111326190Y-89152380D02*
X111326190Y-88152380D01*
X111421428Y-88295238D01*
X111516666Y-88390476D01*
X111611904Y-88438095D01*
X110469047Y-88580952D02*
X110564285Y-88533333D01*
X110611904Y-88485714D01*
X110659523Y-88390476D01*
X110659523Y-88342857D01*
X110611904Y-88247619D01*
X110564285Y-88200000D01*
X110469047Y-88152380D01*
X110278571Y-88152380D01*
X110183333Y-88200000D01*
X110135714Y-88247619D01*
X110088095Y-88342857D01*
X110088095Y-88390476D01*
X110135714Y-88485714D01*
X110183333Y-88533333D01*
X110278571Y-88580952D01*
X110469047Y-88580952D01*
X110564285Y-88628571D01*
X110611904Y-88676190D01*
X110659523Y-88771428D01*
X110659523Y-88961904D01*
X110611904Y-89057142D01*
X110564285Y-89104761D01*
X110469047Y-89152380D01*
X110278571Y-89152380D01*
X110183333Y-89104761D01*
X110135714Y-89057142D01*
X110088095Y-88961904D01*
X110088095Y-88771428D01*
X110135714Y-88676190D01*
X110183333Y-88628571D01*
X110278571Y-88580952D01*
G04 #@! TO.C,R19*
X111992857Y-93152380D02*
X112326190Y-92676190D01*
X112564285Y-93152380D02*
X112564285Y-92152380D01*
X112183333Y-92152380D01*
X112088095Y-92200000D01*
X112040476Y-92247619D01*
X111992857Y-92342857D01*
X111992857Y-92485714D01*
X112040476Y-92580952D01*
X112088095Y-92628571D01*
X112183333Y-92676190D01*
X112564285Y-92676190D01*
X111040476Y-93152380D02*
X111611904Y-93152380D01*
X111326190Y-93152380D02*
X111326190Y-92152380D01*
X111421428Y-92295238D01*
X111516666Y-92390476D01*
X111611904Y-92438095D01*
X110564285Y-93152380D02*
X110373809Y-93152380D01*
X110278571Y-93104761D01*
X110230952Y-93057142D01*
X110135714Y-92914285D01*
X110088095Y-92723809D01*
X110088095Y-92342857D01*
X110135714Y-92247619D01*
X110183333Y-92200000D01*
X110278571Y-92152380D01*
X110469047Y-92152380D01*
X110564285Y-92200000D01*
X110611904Y-92247619D01*
X110659523Y-92342857D01*
X110659523Y-92580952D01*
X110611904Y-92676190D01*
X110564285Y-92723809D01*
X110469047Y-92771428D01*
X110278571Y-92771428D01*
X110183333Y-92723809D01*
X110135714Y-92676190D01*
X110088095Y-92580952D01*
G04 #@! TO.C,R20*
X111992857Y-97152380D02*
X112326190Y-96676190D01*
X112564285Y-97152380D02*
X112564285Y-96152380D01*
X112183333Y-96152380D01*
X112088095Y-96200000D01*
X112040476Y-96247619D01*
X111992857Y-96342857D01*
X111992857Y-96485714D01*
X112040476Y-96580952D01*
X112088095Y-96628571D01*
X112183333Y-96676190D01*
X112564285Y-96676190D01*
X111611904Y-96247619D02*
X111564285Y-96200000D01*
X111469047Y-96152380D01*
X111230952Y-96152380D01*
X111135714Y-96200000D01*
X111088095Y-96247619D01*
X111040476Y-96342857D01*
X111040476Y-96438095D01*
X111088095Y-96580952D01*
X111659523Y-97152380D01*
X111040476Y-97152380D01*
X110421428Y-96152380D02*
X110326190Y-96152380D01*
X110230952Y-96200000D01*
X110183333Y-96247619D01*
X110135714Y-96342857D01*
X110088095Y-96533333D01*
X110088095Y-96771428D01*
X110135714Y-96961904D01*
X110183333Y-97057142D01*
X110230952Y-97104761D01*
X110326190Y-97152380D01*
X110421428Y-97152380D01*
X110516666Y-97104761D01*
X110564285Y-97057142D01*
X110611904Y-96961904D01*
X110659523Y-96771428D01*
X110659523Y-96533333D01*
X110611904Y-96342857D01*
X110564285Y-96247619D01*
X110516666Y-96200000D01*
X110421428Y-96152380D01*
G04 #@! TO.C,R21*
X111992857Y-101152380D02*
X112326190Y-100676190D01*
X112564285Y-101152380D02*
X112564285Y-100152380D01*
X112183333Y-100152380D01*
X112088095Y-100200000D01*
X112040476Y-100247619D01*
X111992857Y-100342857D01*
X111992857Y-100485714D01*
X112040476Y-100580952D01*
X112088095Y-100628571D01*
X112183333Y-100676190D01*
X112564285Y-100676190D01*
X111611904Y-100247619D02*
X111564285Y-100200000D01*
X111469047Y-100152380D01*
X111230952Y-100152380D01*
X111135714Y-100200000D01*
X111088095Y-100247619D01*
X111040476Y-100342857D01*
X111040476Y-100438095D01*
X111088095Y-100580952D01*
X111659523Y-101152380D01*
X111040476Y-101152380D01*
X110088095Y-101152380D02*
X110659523Y-101152380D01*
X110373809Y-101152380D02*
X110373809Y-100152380D01*
X110469047Y-100295238D01*
X110564285Y-100390476D01*
X110659523Y-100438095D01*
G04 #@! TO.C,R22*
X111992857Y-105152380D02*
X112326190Y-104676190D01*
X112564285Y-105152380D02*
X112564285Y-104152380D01*
X112183333Y-104152380D01*
X112088095Y-104200000D01*
X112040476Y-104247619D01*
X111992857Y-104342857D01*
X111992857Y-104485714D01*
X112040476Y-104580952D01*
X112088095Y-104628571D01*
X112183333Y-104676190D01*
X112564285Y-104676190D01*
X111611904Y-104247619D02*
X111564285Y-104200000D01*
X111469047Y-104152380D01*
X111230952Y-104152380D01*
X111135714Y-104200000D01*
X111088095Y-104247619D01*
X111040476Y-104342857D01*
X111040476Y-104438095D01*
X111088095Y-104580952D01*
X111659523Y-105152380D01*
X111040476Y-105152380D01*
X110659523Y-104247619D02*
X110611904Y-104200000D01*
X110516666Y-104152380D01*
X110278571Y-104152380D01*
X110183333Y-104200000D01*
X110135714Y-104247619D01*
X110088095Y-104342857D01*
X110088095Y-104438095D01*
X110135714Y-104580952D01*
X110707142Y-105152380D01*
X110088095Y-105152380D01*
G04 #@! TO.C,R23*
X70752380Y-41707142D02*
X70276190Y-41373809D01*
X70752380Y-41135714D02*
X69752380Y-41135714D01*
X69752380Y-41516666D01*
X69800000Y-41611904D01*
X69847619Y-41659523D01*
X69942857Y-41707142D01*
X70085714Y-41707142D01*
X70180952Y-41659523D01*
X70228571Y-41611904D01*
X70276190Y-41516666D01*
X70276190Y-41135714D01*
X69847619Y-42088095D02*
X69800000Y-42135714D01*
X69752380Y-42230952D01*
X69752380Y-42469047D01*
X69800000Y-42564285D01*
X69847619Y-42611904D01*
X69942857Y-42659523D01*
X70038095Y-42659523D01*
X70180952Y-42611904D01*
X70752380Y-42040476D01*
X70752380Y-42659523D01*
X69752380Y-42992857D02*
X69752380Y-43611904D01*
X70133333Y-43278571D01*
X70133333Y-43421428D01*
X70180952Y-43516666D01*
X70228571Y-43564285D01*
X70323809Y-43611904D01*
X70561904Y-43611904D01*
X70657142Y-43564285D01*
X70704761Y-43516666D01*
X70752380Y-43421428D01*
X70752380Y-43135714D01*
X70704761Y-43040476D01*
X70657142Y-42992857D01*
G04 #@! TO.C,R24*
X77152380Y-41707142D02*
X76676190Y-41373809D01*
X77152380Y-41135714D02*
X76152380Y-41135714D01*
X76152380Y-41516666D01*
X76200000Y-41611904D01*
X76247619Y-41659523D01*
X76342857Y-41707142D01*
X76485714Y-41707142D01*
X76580952Y-41659523D01*
X76628571Y-41611904D01*
X76676190Y-41516666D01*
X76676190Y-41135714D01*
X76247619Y-42088095D02*
X76200000Y-42135714D01*
X76152380Y-42230952D01*
X76152380Y-42469047D01*
X76200000Y-42564285D01*
X76247619Y-42611904D01*
X76342857Y-42659523D01*
X76438095Y-42659523D01*
X76580952Y-42611904D01*
X77152380Y-42040476D01*
X77152380Y-42659523D01*
X76485714Y-43516666D02*
X77152380Y-43516666D01*
X76104761Y-43278571D02*
X76819047Y-43040476D01*
X76819047Y-43659523D01*
G04 #@! TD*
M02*
