G04 #@! TF.GenerationSoftware,KiCad,Pcbnew,5.0.1*
G04 #@! TF.CreationDate,2019-02-24T09:50:17+01:00*
G04 #@! TF.ProjectId,afterglow_gi_nano,6166746572676C6F775F67695F6E616E,rev?*
G04 #@! TF.SameCoordinates,Original*
G04 #@! TF.FileFunction,Paste,Bot*
G04 #@! TF.FilePolarity,Positive*
%FSLAX46Y46*%
G04 Gerber Fmt 4.6, Leading zero omitted, Abs format (unit mm)*
G04 Created by KiCad (PCBNEW 5.0.1) date So 24 Feb 2019 09:50:17 CET*
%MOMM*%
%LPD*%
G01*
G04 APERTURE LIST*
%ADD10R,1.950000X0.600000*%
%ADD11R,1.500000X1.250000*%
%ADD12R,1.500000X1.300000*%
%ADD13R,1.300000X1.500000*%
G04 APERTURE END LIST*
D10*
G04 #@! TO.C,U1*
X101900000Y-33000000D03*
X101900000Y-34270000D03*
X101900000Y-35540000D03*
X101900000Y-36810000D03*
X101900000Y-38080000D03*
X101900000Y-39350000D03*
X101900000Y-40620000D03*
X101900000Y-41890000D03*
X101900000Y-43160000D03*
X101900000Y-44430000D03*
X92500000Y-44430000D03*
X92500000Y-43160000D03*
X92500000Y-41890000D03*
X92500000Y-40620000D03*
X92500000Y-39350000D03*
X92500000Y-38080000D03*
X92500000Y-36810000D03*
X92500000Y-35540000D03*
X92500000Y-34270000D03*
X92500000Y-33000000D03*
G04 #@! TD*
D11*
G04 #@! TO.C,C3*
X76000000Y-38000000D03*
X73500000Y-38000000D03*
G04 #@! TD*
D12*
G04 #@! TO.C,R1*
X98500000Y-30500000D03*
X95800000Y-30500000D03*
G04 #@! TD*
G04 #@! TO.C,R2*
X112000000Y-81500000D03*
X109300000Y-81500000D03*
G04 #@! TD*
D13*
G04 #@! TO.C,R3*
X59000000Y-128000000D03*
X59000000Y-125300000D03*
G04 #@! TD*
G04 #@! TO.C,R4*
X91500000Y-52500000D03*
X91500000Y-55200000D03*
G04 #@! TD*
G04 #@! TO.C,R5*
X94000000Y-55200000D03*
X94000000Y-52500000D03*
G04 #@! TD*
G04 #@! TO.C,R6*
X63000000Y-125300000D03*
X63000000Y-128000000D03*
G04 #@! TD*
G04 #@! TO.C,R7*
X77500000Y-52500000D03*
X77500000Y-55200000D03*
G04 #@! TD*
G04 #@! TO.C,R8*
X80000000Y-52500000D03*
X80000000Y-55200000D03*
G04 #@! TD*
G04 #@! TO.C,R9*
X67000000Y-125300000D03*
X67000000Y-128000000D03*
G04 #@! TD*
G04 #@! TO.C,R10*
X70500000Y-52500000D03*
X70500000Y-55200000D03*
G04 #@! TD*
G04 #@! TO.C,R11*
X73000000Y-55200000D03*
X73000000Y-52500000D03*
G04 #@! TD*
G04 #@! TO.C,R12*
X74800000Y-125300000D03*
X74800000Y-128000000D03*
G04 #@! TD*
G04 #@! TO.C,R13*
X63500000Y-52500000D03*
X63500000Y-55200000D03*
G04 #@! TD*
G04 #@! TO.C,R14*
X66000000Y-55200000D03*
X66000000Y-52500000D03*
G04 #@! TD*
G04 #@! TO.C,R15*
X78800000Y-125300000D03*
X78800000Y-128000000D03*
G04 #@! TD*
G04 #@! TO.C,R16*
X84500000Y-52500000D03*
X84500000Y-55200000D03*
G04 #@! TD*
G04 #@! TO.C,R17*
X87000000Y-55200000D03*
X87000000Y-52500000D03*
G04 #@! TD*
D12*
G04 #@! TO.C,R18*
X112700000Y-87000000D03*
X110000000Y-87000000D03*
G04 #@! TD*
G04 #@! TO.C,R19*
X110000000Y-91000000D03*
X112700000Y-91000000D03*
G04 #@! TD*
G04 #@! TO.C,R20*
X110000000Y-95000000D03*
X112700000Y-95000000D03*
G04 #@! TD*
G04 #@! TO.C,R21*
X110000000Y-99000000D03*
X112700000Y-99000000D03*
G04 #@! TD*
G04 #@! TO.C,R22*
X110000000Y-103000000D03*
X112700000Y-103000000D03*
G04 #@! TD*
D13*
G04 #@! TO.C,R23*
X72000000Y-43700000D03*
X72000000Y-41000000D03*
G04 #@! TD*
G04 #@! TO.C,R24*
X75000000Y-43700000D03*
X75000000Y-41000000D03*
G04 #@! TD*
M02*
